<svg xmlns="http://www.w3.org/2000/svg" viewBox="0 0 64.84 69.44"><defs><style>.cls-1{fill:#333;}.cls-2{fill:#3e3e3e;}.cls-3{fill:#101416;}.cls-4{fill:#1a1a1a;}.cls-5{font-size:8.71px;fill:#fff;font-family:MyriadPro-Bold, Myriad Pro;font-weight:700;}.cls-6{letter-spacing:0.01em;}.cls-7{letter-spacing:0em;}</style></defs><g id="Layer_2" data-name="Layer 2"><g id="Layer_1-2" data-name="Layer 1"><rect width="36.4" height="69.44" rx="12.74"/><path class="cls-1" d="M36.4,12.74v44a13.33,13.33,0,0,1-.19,2.1H.19A12.24,12.24,0,0,1,0,56.7v-44c0-.28,0-.56,0-.84H36.36C36.37,12.18,36.4,12.46,36.4,12.74Z"/><path class="cls-2" d="M36.4,23.27V46.76a3.93,3.93,0,0,1-.19,1.12H.19A3.61,3.61,0,0,1,0,46.76V23.27a3.42,3.42,0,0,1,0-.45H36.36C36.37,23,36.4,23.12,36.4,23.27Z"/><path class="cls-3" d="M29.75,67.89a15,15,0,0,1-1.47.67V.88a11.44,11.44,0,0,1,1.47.67Z"/><path class="cls-3" d="M25.66,69.26a12,12,0,0,1-1.48.15V0a14.27,14.27,0,0,1,1.48.14Z"/><path class="cls-3" d="M6.65,67.89a14.19,14.19,0,0,0,1.48.67V.88a11,11,0,0,0-1.48.67Z"/><path class="cls-3" d="M10.74,69.26a12.16,12.16,0,0,0,1.48.15V0a14.53,14.53,0,0,0-1.48.14Z"/><path class="cls-4" d="M36.44,24.9l21.75-6.79c1.17-.4,2.56.16,2.56,1v3c0,.43-.37.82-1,1L36.44,30.47Z"/><path class="cls-4" d="M36.44,37.06l26.27-8.88c1-.33,2.13.13,2.13.85v2.49c0,.35-.31.68-.79.85L36.44,41.7Z"/><text class="cls-5" transform="translate(20.94 58.15) rotate(-90)">EFFICIEN<tspan class="cls-6" x="34.62" y="0">C</tspan><tspan class="cls-7" x="39.86" y="0">Y</tspan></text></g></g></svg>