<svg xmlns="http://www.w3.org/2000/svg" viewBox="0 0 81.54 72.32"><defs><style>.cls-1{fill:#242424;}.cls-2{fill:#0c0c0c;}.cls-3{fill:#383938;}.cls-4{fill:#333;}.cls-5{fill:#3e3e3e;}.cls-6{fill:#101416;}.cls-7{font-size:9.55px;fill:#fff;font-family:MyriadPro-Bold, Myriad Pro;font-weight:700;}.cls-8{letter-spacing:0.01em;}</style></defs><g id="Layer_2" data-name="Layer 2"><g id="Layer_1-2" data-name="Layer 1"><polygon class="cls-1" points="0 64.14 0 72.32 51.97 36.16 51.97 27.98 0 64.14"/><polygon class="cls-2" points="0 48.32 0 56.5 51.97 33.92 51.97 25.74 0 48.32"/><rect class="cls-3" x="36.93" y="25.74" width="10.46" height="9.1"/><path class="cls-1" d="M36.93,25.74V24.57a2.27,2.27,0,0,0-2.27-2.27H0v3.44Z"/><path class="cls-1" d="M0,38.18H34.66a2.28,2.28,0,0,0,2.27-2.28V34.84H0Z"/><rect class="cls-1" y="25.74" width="36.93" height="9.1"/><rect x="45.98" width="35.57" height="67.85" rx="12.45"/><path class="cls-4" d="M46,12.45v43a12.6,12.6,0,0,0,.18,2.05h35.2a12.6,12.6,0,0,0,.18-2.05V12.45c0-.28,0-.55,0-.82H46C46,11.9,46,12.17,46,12.45Z"/><path class="cls-5" d="M46,22.74v23a3.71,3.71,0,0,0,.18,1.09h35.2a3.71,3.71,0,0,0,.18-1.09V22.74a3.13,3.13,0,0,0,0-.44H46A3.13,3.13,0,0,0,46,22.74Z"/><path class="cls-6" d="M52.47,66.33a12.49,12.49,0,0,0,1.44.66V.86a11,11,0,0,0-1.44.66Z"/><path class="cls-6" d="M56.47,67.68a13.5,13.5,0,0,0,1.44.14V0a11.33,11.33,0,0,0-1.44.14Z"/><path class="cls-6" d="M75,66.33A11.76,11.76,0,0,1,73.6,67V.86A10.43,10.43,0,0,1,75,1.52Z"/><path class="cls-6" d="M71,67.68a13.5,13.5,0,0,1-1.44.14V0A11.33,11.33,0,0,1,71,.17Z"/><text class="cls-7" transform="translate(67.04 55.46) rotate(-90)">SECURI<tspan class="cls-8" x="30.83" y="0">T</tspan><tspan x="36.13" y="0">Y</tspan></text></g></g></svg>