<svg xmlns="http://www.w3.org/2000/svg" viewBox="0 0 34.66 129.55"><defs><style>.cls-1{fill:#333f48;}.cls-2{fill:#010101;opacity:0.2;}.cls-3{fill:#6f7170;}.cls-4{font-size:7.13px;fill:#fff;font-family:MyriadPro-Bold, Myriad Pro;font-weight:700;}.cls-5{letter-spacing:-0.03em;}.cls-6{letter-spacing:0em;}</style></defs><g id="Layer_2" data-name="Layer 2"><g id="Layer_1-2" data-name="Layer 1"><path class="cls-1" d="M34.66,34v95.59H0C7.13,99.68,15.88,62.06,21.19,35.94c1.41-7,2.59-13.15,3.41-18.12.43-2.59.73-5,.93-7.23A56.58,56.58,0,0,0,25.54,0H26l1.43,2.87A69.72,69.72,0,0,1,34.66,34Z"/><path class="cls-2" d="M21.19,35.94v93.61H0C7.13,99.68,15.88,62.06,21.19,35.94Z"/><path class="cls-3" d="M34.66,34v95.59H29.2V34a75.57,75.57,0,0,0-3.67-23.37A56.58,56.58,0,0,0,25.54,0H26l1.43,2.87A69.72,69.72,0,0,1,34.66,34Z"/><text class="cls-4" transform="translate(26.64 126.54) rotate(-90)"><tspan class="cls-5">C</tspan><tspan x="4.03" y="0">ONSUMPTION </tspan><tspan class="cls-6" x="50.33" y="0">B</tspan><tspan x="54.61" y="0">ASED IT</tspan></text></g></g></svg>