<svg xmlns="http://www.w3.org/2000/svg" viewBox="0 0 33.72 128.38"><defs><style>.cls-1{fill:#333f48;}.cls-2{fill:#010101;opacity:0.2;}.cls-3{fill:#6f7170;}.cls-4{font-size:7.13px;fill:#fff;font-family:MyriadPro-Bold, Myriad Pro;font-weight:700;}.cls-5{letter-spacing:-0.04em;}.cls-6{letter-spacing:-0.03em;}.cls-7{letter-spacing:0em;}</style></defs><g id="Layer_2" data-name="Layer 2"><g id="Layer_1-2" data-name="Layer 1"><path class="cls-1" d="M13.48,39.37c5.36,25.8,13.52,60.84,20.24,89H0V32.78A69.76,69.76,0,0,1,7.24,1.69L8.08,0a61.83,61.83,0,0,0,.35,11.7c.18,1.57.41,3.21.7,4.94C10.13,22.68,11.64,30.47,13.48,39.37Z"/><path class="cls-2" d="M13.48,39.37c5.36,25.8,13.52,60.84,20.24,89H13.48Z"/><path class="cls-3" d="M9,11.7A75.72,75.72,0,0,0,6,32.78v95.6H.53V32.78A69.76,69.76,0,0,1,7.77,1.69L8.61,0A61,61,0,0,0,9,11.7Z"/><text class="cls-4" transform="translate(13.48 121.08) rotate(-90)">C<tspan class="cls-5" x="4.24" y="0">L</tspan><tspan x="7.61" y="0">OUD </tspan><tspan class="cls-6" x="23.98" y="0">C</tspan><tspan class="cls-7" x="28.01" y="0">OMPUTING</tspan></text></g></g></svg>