<svg xmlns="http://www.w3.org/2000/svg" viewBox="0 0 159.14 53.14"><defs><style>.cls-1,.cls-3{fill:#010101;}.cls-2{fill:#df1f26;}.cls-3{opacity:0.2;}.cls-4{fill:#c4beb6;}.cls-5{fill:#242424;}.cls-6{font-size:6.53px;}.cls-6,.cls-8{fill:#fff;font-family:MyriadPro-Bold, Myriad Pro;font-weight:700;}.cls-7{letter-spacing:-0.03em;}.cls-8{font-size:9.55px;}</style></defs><g id="Layer_2" data-name="Layer 2"><g id="Layer_1-2" data-name="Layer 1"><path class="cls-1" d="M3.05,3A3,3,0,0,0,0,6.08v44a3,3,0,1,0,6.09,0v-44A3,3,0,0,0,3.05,3Z"/><path class="cls-1" d="M156.09,3A3,3,0,0,0,153,6.08v44a3,3,0,1,0,6.1,0v-44A3,3,0,0,0,156.09,3Z"/><rect class="cls-2" x="13.52" width="131.52" height="24.91"/><path class="cls-3" d="M131,0l2.32,8.27a28.93,28.93,0,0,0,3.51,7.84h0l0,0a2.28,2.28,0,0,1-2.1,3.5l-33.36-2.74a1.59,1.59,0,0,0-1.71,1.58v6.42h50.4V0Z"/><path class="cls-4" d="M101.39,24.91s4.87,8.21,14.62,8.21c7,0,10.51,1.91,14,5.19h0c2.37,7.59,7.9,6.16,13,5.12h6.16V22.83l-47.83-4.07Z"/><path class="cls-5" d="M147.88,53.14h.24a8,8,0,0,0,8-8V0H133.17l2.32,8.27A29.24,29.24,0,0,0,139,16.11h0a31.24,31.24,0,0,1,4.85,19.21L143.58,39a14.86,14.86,0,0,0,1.2,7.06Z"/><path class="cls-3" d="M27.58,0,25.26,8.27a28.93,28.93,0,0,1-3.51,7.84h0l0,0a2.28,2.28,0,0,0,2.1,3.5l33.36-2.74a1.59,1.59,0,0,1,1.71,1.58v6.42H8.5V0Z"/><path class="cls-4" d="M57.16,24.91s-4.86,8.21-14.61,8.21c-7,0-10.51,1.91-14,5.19h0a19.08,19.08,0,0,1-13,5.12H9.34V22.83l47.82-4.07Z"/><path class="cls-5" d="M10.67,53.14h0a8.21,8.21,0,0,1-8.2-8.21V0H25.38L23.07,8.27a29.24,29.24,0,0,1-3.51,7.84h0a31.24,31.24,0,0,0-4.85,19.21L15,39a14.86,14.86,0,0,1-1.2,7.06Z"/><text class="cls-6" transform="translate(95.13 13.04)"><tspan class="cls-7">C</tspan><tspan x="3.69" y="0">OMPUTING</tspan></text><text class="cls-8" transform="translate(35.57 13.04)">EDGE</text></g></g></svg>