<svg xmlns="http://www.w3.org/2000/svg" viewBox="0 0 187.48 52.27"><defs><style>.cls-1{fill:#242424;}.cls-2{fill:#bc2026;}.cls-3{fill:#df1f26;}.cls-4,.cls-5{fill:#fff;}.cls-5{font-size:19.79px;font-family:MyriadPro-Bold, Myriad Pro;font-weight:700;}</style></defs><g id="Layer_2" data-name="Layer 2"><g id="Layer_1-2" data-name="Layer 1"><rect class="cls-1" x="71.88" y="16.46" width="47.66" height="21.5" rx="2.81" transform="translate(122.91 -68.5) rotate(90)"/><path class="cls-2" d="M0,48.67V5.07L176.6,15.33a11.56,11.56,0,0,1,10.88,11.54h0A11.55,11.55,0,0,1,176.6,38.4Z"/><path class="cls-3" d="M0,47V6.7l176.6,9.5c6.11.33,10.88,5,10.88,10.67h0c0,5.66-4.77,10.33-10.88,10.66Z"/><path class="cls-2" d="M21.8,9.51V1.08L34.65,4.69a2.87,2.87,0,0,1,2.09,2.76h0a2.86,2.86,0,0,1-3.05,2.86Z"/><rect class="cls-1" x="15.83" y="4.51" width="10.48" height="1.45" rx="0.64" transform="translate(26.31 -15.83) rotate(90)"/><path class="cls-2" d="M21.8,42.75v8.44l12.85-3.61a2.87,2.87,0,0,0,2.09-2.76h0A2.86,2.86,0,0,0,33.69,42Z"/><rect class="cls-1" x="15.83" y="46.3" width="10.48" height="1.45" rx="0.64" transform="translate(-25.96 68.1) rotate(-90)"/><path class="cls-4" d="M48.36,29.91A3.83,3.83,0,0,0,50.77,31a5.24,5.24,0,0,0,3.81-1.05.68.68,0,0,1,1,0,18.18,18.18,0,0,0,1.48,1.14c.28.2.28.34,0,.58a8.69,8.69,0,0,1-4.45,2.1A8.36,8.36,0,0,1,47.33,33a6.52,6.52,0,0,1-3.53-6.47,6.49,6.49,0,0,1,5.13-6.14,6.63,6.63,0,0,1,8.7,5.32c.07.35-.13.4-.35.49l-5.67,2.34Zm-1.08-3c.19.08-.23.74.41.48,1.91-.77,3.8-1.58,5.71-2.36.25-.11.28-.21.14-.44a3,3,0,0,0-1.81-1.42A3.58,3.58,0,0,0,47.28,26.92Z"/><path class="cls-4" d="M81,20.16a6.85,6.85,0,0,1,.92,13.67,7.17,7.17,0,0,1-6.31-2.22,6.48,6.48,0,0,1-1.4-6.78,6.65,6.65,0,0,1,5.16-4.51,2.85,2.85,0,0,1,.65-.11C80.3,20.18,80.63,20.17,81,20.16Zm3.5,6.89a3.6,3.6,0,0,0-3.52-3.77A3.51,3.51,0,0,0,77.41,27,3.6,3.6,0,0,0,81,30.74,3.46,3.46,0,0,0,84.46,27.05Z"/><path class="cls-4" d="M109,20.17a6.85,6.85,0,0,1,1,13.66,7.12,7.12,0,0,1-6.57-2.49,6.84,6.84,0,0,1,4-11A7,7,0,0,1,109,20.17ZM105.52,27a3.58,3.58,0,0,0,3.63,3.71A3.48,3.48,0,0,0,112.57,27a3.6,3.6,0,0,0-3.6-3.7A3.5,3.5,0,0,0,105.52,27Z"/><path class="cls-4" d="M62.62,22.23a5.53,5.53,0,0,1,3.25-2c3.55-.62,6.46,1.55,6.49,5.12,0,2.58,0,5.15,0,7.73,0,.46-.13.6-.59.58q-1.23,0-2.46,0c-.49,0-.66-.1-.66-.62,0-2.29,0-4.58,0-6.86a2.93,2.93,0,0,0-3-2.92,2.88,2.88,0,0,0-3,2.93c0,2.3,0,4.61,0,6.91,0,.41-.09.58-.54.56-.88,0-1.76,0-2.63,0-.33,0-.49-.06-.49-.45,0-4.15,0-8.3,0-12.45,0-.31.09-.41.4-.41q1.42,0,2.85,0c.32,0,.41.12.39.42S62.62,21.63,62.62,22.23Z"/><path class="cls-4" d="M87.52,20.39h3.93c.34,0,.36.26.44.47l2.79,7.66c.08.24.17.47.27.72.22-.11.22-.31.28-.47,1-2.62,1.92-5.24,2.85-7.86a.65.65,0,0,1,.75-.52c1.06,0,2.12,0,3.18,0,.34,0,.45.05.3.42Q99.73,27,97.17,33.3a.55.55,0,0,1-.62.39c-1,0-2.08,0-3.12,0-.25,0-.44,0-.56-.3C91.11,29.07,89.33,24.78,87.52,20.39Z"/><path class="cls-4" d="M31.43,25.05c0-2.71,0-5.42,0-8.12,0-.43.1-.57.54-.56.88,0,1.76,0,2.63,0,.45,0,.55.14.55.56q0,6.34,0,12.68c0,.81-.09.69.7.69,2.36,0,4.72,0,7.08,0,.42,0,.53.12.52.52,0,.83,0,1.65,0,2.47,0,.31-.11.41-.42.41H31.83c-.44,0-.41-.24-.4-.52Z"/><text class="cls-5" transform="translate(125.23 33.58)">HPC</text></g></g></svg>