<svg xmlns="http://www.w3.org/2000/svg" viewBox="0 0 79.69 72.32"><defs><style>.cls-1{fill:#242424;}.cls-2{fill:#0c0c0c;}.cls-3{fill:#383938;}.cls-4{fill:#333;}.cls-5{fill:#3e3e3e;}.cls-6{fill:#101416;}.cls-7{font-size:8.37px;fill:#fff;font-family:MyriadPro-Bold, Myriad Pro;font-weight:700;}.cls-8{letter-spacing:0.01em;}.cls-9{letter-spacing:0em;}</style></defs><g id="Layer_2" data-name="Layer 2"><g id="Layer_1-2" data-name="Layer 1"><polygon class="cls-1" points="27.72 27.98 27.72 36.16 79.69 72.32 79.69 64.14 27.72 27.98"/><polygon class="cls-2" points="27.72 25.74 27.72 33.92 79.69 56.5 79.69 48.32 27.72 25.74"/><rect class="cls-3" x="34" y="25.74" width="10.6" height="9.1"/><path class="cls-1" d="M79.69,22.3H46.88a2.27,2.27,0,0,0-2.27,2.27v1.17H79.69Z"/><path class="cls-1" d="M44.61,34.84V35.9a2.28,2.28,0,0,0,2.27,2.28H79.69V34.84Z"/><rect class="cls-1" x="44.61" y="25.74" width="35.09" height="9.1"/><rect width="35.57" height="67.85" rx="12.45"/><path class="cls-4" d="M0,12.45v43a12.6,12.6,0,0,0,.18,2.05h35.2a12.6,12.6,0,0,0,.19-2.05V12.45c0-.28,0-.55,0-.82H0C0,11.9,0,12.17,0,12.45Z"/><path class="cls-5" d="M0,22.74v23a3.71,3.71,0,0,0,.18,1.09h35.2a3.73,3.73,0,0,0,.19-1.09V22.74a3.12,3.12,0,0,0,0-.44H0A3.13,3.13,0,0,0,0,22.74Z"/><path class="cls-6" d="M6.49,66.33A13.31,13.31,0,0,0,7.93,67V.86a11.64,11.64,0,0,0-1.44.66Z"/><path class="cls-6" d="M10.49,67.68a14,14,0,0,0,1.44.14V0a11.69,11.69,0,0,0-1.44.14Z"/><path class="cls-6" d="M29.07,66.33a12.49,12.49,0,0,1-1.44.66V.86a11,11,0,0,1,1.44.66Z"/><path class="cls-6" d="M25.07,67.68a13.76,13.76,0,0,1-1.44.14V0a11.51,11.51,0,0,1,1.44.14Z"/><text class="cls-7" transform="translate(20.84 57.45) rotate(-90)">RELIABILI<tspan class="cls-8" x="35.7" y="0">T</tspan><tspan class="cls-9" x="40.34" y="0">Y</tspan></text></g></g></svg>