<svg xmlns="http://www.w3.org/2000/svg" viewBox="0 0 128.34 250"><defs><style>.cls-1{fill:#383938;}.cls-2{fill:#242424;}.cls-3{fill:#b71f25;}.cls-4{fill:#d42027;}.cls-5{fill:#df1f26;}.cls-6{fill:#bc2026;}.cls-7{fill:#333;}.cls-8{fill:#c4beb6;}.cls-9{fill:#101416;}.cls-10{fill:#010101;}.cls-11{fill:#4ac5de;}.cls-12{fill:#bfbebe;}.cls-13{font-size:10.54px;fill:#fff;font-family:MyriadPro-Bold, Myriad Pro;font-weight:700;}.cls-14{letter-spacing:-0.02em;}.cls-15{letter-spacing:0em;}.cls-16{letter-spacing:-0.03em;}.cls-17{letter-spacing:0em;}.cls-18{letter-spacing:0.01em;}.cls-19{letter-spacing:-0.01em;}.cls-20{letter-spacing:0.01em;}</style></defs><g id="Layer_2" data-name="Layer 2"><g id="Layer_1-2" data-name="Layer 1"><rect class="cls-1" x="8.77" y="221.1" width="111.74" height="9.1"/><rect class="cls-2" x="21.5" y="217.65" width="86.45" height="15.88" rx="3.71"/><rect class="cls-3" x="1.16" y="32.6" width="36.87" height="20.92"/><rect class="cls-3" x="88.84" y="32.6" width="36.87" height="20.92"/><rect class="cls-3" x="21.75" y="22.14" width="17.27" height="14.61" rx="6.42"/><rect class="cls-3" x="86.19" y="22.14" width="17.27" height="14.61" rx="6.42"/><path class="cls-4" d="M19.52,25.65c-3.14-4.47-11.11-5.16-15.78-5.16A3.57,3.57,0,0,0,.17,24.05v7.64a3.56,3.56,0,0,0,3.56,3.56H34.14a3.57,3.57,0,0,0,3.56-3.56v-1a3.57,3.57,0,0,0-3.56-3.56H22.39A3.53,3.53,0,0,1,19.52,25.65Z"/><path class="cls-4" d="M109,25.15c3.15-4.47,11.11-5.16,15.79-5.15a3.56,3.56,0,0,1,3.57,3.56v7.63a3.57,3.57,0,0,1-3.56,3.56H94.37a3.56,3.56,0,0,1-3.56-3.56v-1a3.56,3.56,0,0,1,3.56-3.56h11.74A3.49,3.49,0,0,0,109,25.15Z"/><path class="cls-5" d="M92,22.39C92,11.11,86.46,6.88,85.32.88H43.45c-1.14,6-7.11,10.23-7.11,21.51,0,24.34-44,2.67-35.16,56.06C7.9,118.87,37.38,238,37.38,238a14.91,14.91,0,0,0,14.3,12h25A14.91,14.91,0,0,0,91,238s29.48-119.17,36.2-159.59C136,25.06,92,46.73,92,22.39Z"/><path class="cls-6" d="M114,66.14V40c-10.17-4.77-22-5-22-17.64C92,11.11,86.46,6.88,85.32.88H43.45c-1.14,6-7.11,10.23-7.11,21.51,0,12.45-11.52,12.86-21.58,17.44V66.7a239.76,239.76,0,0,0,13.19,78L64,250l36.42-104.83A239.91,239.91,0,0,0,114,66.14Z"/><path class="cls-7" d="M41.94,194.84h45.4A6.13,6.13,0,0,1,93.47,201v35.74a0,0,0,0,1,0,0H35.81a0,0,0,0,1,0,0V201A6.13,6.13,0,0,1,41.94,194.84Z"/><path class="cls-8" d="M28.38,34.54V66.7a323.09,323.09,0,0,0,9.57,78L64.08,249.83l.31-.86,26.16-103.8a323.14,323.14,0,0,0,9.84-79V34.75C95.53,32.48,92,29.28,92,22.39,92,11.11,84.89,6.88,83.75.88H45c-1.14,6-8.68,10.23-8.68,21.51C36.34,29.08,33,32.29,28.38,34.54Z"/><path class="cls-5" d="M94.28,66.14v-36A12.48,12.48,0,0,1,92,22.39C92,11.11,84.89,6.88,83.75.88H45c-1.14,6-8.68,10.23-8.68,21.51a13,13,0,0,1-1.85,7.16V66.7a386.06,386.06,0,0,0,7.95,78L64.17,250,86.11,145.17A386,386,0,0,0,94.28,66.14Z"/><path class="cls-6" d="M74.72,66.14v-36a31.22,31.22,0,0,1-.79-7.78c0-11.28-2.46-15.51-2.85-21.51H57.69c-.39,6-3,10.23-3,21.51a33.24,33.24,0,0,1-.64,7.16V66.7c0,26.21.92,52.35,2.75,78L64.31,250l7.58-104.83C73.77,119.22,74.72,92.72,74.72,66.14Z"/><path class="cls-9" d="M77.39,231.12l22.72,17a1.75,1.75,0,0,0,2.8-1.4v-7.9a1.75,1.75,0,0,0-.7-1.4L77.51,219a1.75,1.75,0,0,0-2.79,1.4v5.44A6.64,6.64,0,0,0,77.39,231.12Z"/><path class="cls-9" d="M52.06,231.12l-22.72,17a1.75,1.75,0,0,1-2.8-1.4v-7.9a1.73,1.73,0,0,1,.71-1.4L51.94,219a1.75,1.75,0,0,1,2.79,1.4v5.44A6.64,6.64,0,0,1,52.06,231.12Z"/><path class="cls-9" d="M53.21,0h23a6.13,6.13,0,0,1,6.13,6.13v48.5A14.87,14.87,0,0,1,67.49,69.5H62A14.87,14.87,0,0,1,47.09,54.62V6.13A6.13,6.13,0,0,1,53.21,0Z"/><path class="cls-2" d="M53.21,0h23a6.13,6.13,0,0,1,6.13,6.13v48.5A14.87,14.87,0,0,1,67.49,69.5H62A14.87,14.87,0,0,1,47.09,54.62V6.13A6.13,6.13,0,0,1,53.21,0Z"/><rect class="cls-9" x="60.77" y="73.99" width="7.22" height="28.4" rx="3.17"/><rect class="cls-2" x="49.06" y="77.6" width="30.66" height="21.09" rx="5.44"/><path class="cls-10" d="M80.47,1.69A6.08,6.08,0,0,0,76.26,0H53.19A6.12,6.12,0,0,0,49,1.69Z"/><rect class="cls-10" x="62.3" y="0.35" width="4.86" height="5.79"/><path class="cls-10" d="M82.37,54.67V22.13a6.57,6.57,0,0,0-6-4H53.17a6.55,6.55,0,0,0-6.08,4.11V54.67A14.82,14.82,0,0,0,61.91,69.5h5.64A14.83,14.83,0,0,0,82.37,54.67Z"/><path class="cls-8" d="M49.4,62.61a14.79,14.79,0,0,0,3.87,4.09l6.92-28.3L55.6,37.27Z"/><rect class="cls-11" x="51.05" y="45.36" width="5.99" height="16.4" transform="translate(14.27 -11.31) rotate(13.74)"/><rect class="cls-2" x="55.85" y="26.62" width="5.99" height="14.67" transform="translate(9.75 -13.01) rotate(13.74)"/><rect class="cls-8" x="57.29" y="26.62" width="3.1" height="14.67" transform="translate(9.75 -13.01) rotate(13.74)"/><path class="cls-8" d="M80.49,61.88,74.36,36.81l-4.6,1.12,6.95,28.38A14.93,14.93,0,0,0,80.49,61.88Z"/><rect class="cls-11" x="72.91" y="44.9" width="5.99" height="16.4" transform="translate(162.26 86.65) rotate(166.26)"/><rect class="cls-2" x="68.12" y="26.16" width="5.99" height="14.67" transform="translate(148.15 49.13) rotate(166.26)"/><rect class="cls-8" x="69.56" y="26.16" width="3.1" height="14.67" transform="translate(148.15 49.13) rotate(166.26)"/><rect class="cls-2" x="47.09" y="22.55" width="35.28" height="5.81"/><rect class="cls-8" x="70.09" y="5.53" width="5.15" height="29.89" transform="translate(147.5 10.58) rotate(156.72)"/><polygon class="cls-12" points="82.37 27 74.17 30.53 76.2 35.26 82.37 32.6 82.37 27"/><rect class="cls-11" x="74.47" y="26.82" width="5.15" height="7.7" transform="translate(-5.85 32.95) rotate(-23.28)"/><rect class="cls-12" x="75.46" y="28.3" width="3.17" height="4.74" transform="translate(-5.85 32.95) rotate(-23.28)"/><rect class="cls-8" x="54.22" y="5.53" width="5.15" height="29.89" transform="translate(12.72 -20.78) rotate(23.28)"/><polygon class="cls-12" points="47.09 27 55.28 30.53 53.25 35.26 47.09 32.6 47.09 27"/><rect class="cls-11" x="48.56" y="28.1" width="7.7" height="5.15" transform="translate(3.52 66.69) rotate(-66.72)"/><rect class="cls-12" x="50.04" y="29.09" width="4.74" height="3.17" transform="translate(3.52 66.69) rotate(-66.72)"/><path class="cls-10" d="M77.06,10.49a38.28,38.28,0,0,0-24.66,0c-.87.29-1.74-.54-1.95-1.89h0c-.21-1.35.36-2.73,1.29-3a40.41,40.41,0,0,1,26,0c.92.31,1.49,1.69,1.28,3h0C78.79,10,77.92,10.78,77.06,10.49Z"/><text class="cls-13" transform="translate(61.94 197.65) rotate(-90)"><tspan class="cls-14">HY</tspan><tspan class="cls-15" x="13.23" y="0">PER </tspan><tspan class="cls-16" x="33.36" y="0">C</tspan><tspan x="39.31" y="0">ONVE</tspan><tspan class="cls-17" x="66.46" y="0">R</tspan><tspan x="72.67" y="0">GED</tspan><tspan x="3.82" y="12.64">INF</tspan><tspan class="cls-18" x="19.64" y="12.64">R</tspan><tspan x="25.99" y="12.64">AST</tspan><tspan class="cls-19" x="44.36" y="12.64">R</tspan><tspan x="50.56" y="12.64">U</tspan><tspan class="cls-20" x="57.74" y="12.64">C</tspan><tspan x="64.16" y="12.64">TURE</tspan></text></g></g></svg>