<svg xmlns="http://www.w3.org/2000/svg" viewBox="0 0 99.69 59.67"><defs><style>.cls-1{fill:#fff;}.cls-2{fill:#333;}.cls-3{opacity:0.1;}.cls-4{fill:#010101;}.cls-5{font-size:10.54px;fill:#333f48;font-family:MyriadPro-Bold, Myriad Pro;font-weight:700;}.cls-6{letter-spacing:-0.09em;}</style></defs><g id="Layer_2" data-name="Layer 2"><g id="Layer_1-2" data-name="Layer 1"><path class="cls-1" d="M93.86,46.67,52,43.73a30.71,30.71,0,0,0-4.29,0L5.83,46.67V2.73L44.5.18a79.6,79.6,0,0,1,10.7,0L93.86,2.73Z"/><path class="cls-2" d="M55.2.18a79.6,79.6,0,0,0-10.7,0L5.83,2.73V14.57L44.5,12a79.6,79.6,0,0,1,10.7,0l38.66,2.55V2.73Z"/><g class="cls-3"><path class="cls-4" d="M7.89,21.1A41.66,41.66,0,0,1,12.34,2.3l-6.51.43V46.67L16,46A41.8,41.8,0,0,1,7.89,21.1Z"/><path class="cls-4" d="M87.36,2.3A41.94,41.94,0,0,1,83.65,46l10.21.71V2.73Z"/></g><path class="cls-2" d="M6.3,59.67h0a1.29,1.29,0,0,0,1.29-1.29V2.62A1.3,1.3,0,0,0,6.3,1.32h-5A1.29,1.29,0,0,0,0,2.73L5,58.49A1.29,1.29,0,0,0,6.3,59.67Z"/><path class="cls-2" d="M93.4,59.67h0a1.3,1.3,0,0,1-1.3-1.29V2.62a1.3,1.3,0,0,1,1.3-1.3h5a1.3,1.3,0,0,1,1.29,1.41l-5,55.76A1.29,1.29,0,0,1,93.4,59.67Z"/><text class="cls-5" transform="translate(12.22 28.97)">ANA<tspan class="cls-6" x="21.09" y="0">L</tspan><tspan x="25.53" y="0">YTICS &amp; AI</tspan></text></g></g></svg>