<svg xmlns="http://www.w3.org/2000/svg" viewBox="0 0 64.84 69.44"><defs><style>.cls-1{fill:#333;}.cls-2{fill:#3e3e3e;}.cls-3{fill:#101416;}.cls-4{fill:#1a1a1a;}.cls-5{font-size:5.76px;fill:#fff;font-family:MyriadPro-Bold, Myriad Pro;font-weight:700;}.cls-6{letter-spacing:0em;}</style></defs><g id="Layer_2" data-name="Layer 2"><g id="Layer_1-2" data-name="Layer 1"><rect x="28.44" width="36.4" height="69.44" rx="12.74"/><path class="cls-1" d="M28.44,12.74v44a13.33,13.33,0,0,0,.19,2.1h36a12.24,12.24,0,0,0,.19-2.1v-44c0-.28,0-.56,0-.84H28.48C28.47,12.18,28.44,12.46,28.44,12.74Z"/><path class="cls-2" d="M28.44,23.27V46.76a3.93,3.93,0,0,0,.19,1.12h36a3.61,3.61,0,0,0,.19-1.12V23.27a3.42,3.42,0,0,0,0-.45H28.48C28.47,23,28.44,23.12,28.44,23.27Z"/><path class="cls-3" d="M35.09,67.89a15,15,0,0,0,1.47.67V.88a11.44,11.44,0,0,0-1.47.67Z"/><path class="cls-3" d="M39.18,69.26a12,12,0,0,0,1.48.15V0a14.27,14.27,0,0,0-1.48.14Z"/><path class="cls-3" d="M58.19,67.89a14.19,14.19,0,0,1-1.48.67V.88a11,11,0,0,1,1.48.67Z"/><path class="cls-3" d="M54.1,69.26a12.16,12.16,0,0,1-1.48.15V0A14.53,14.53,0,0,1,54.1.17Z"/><path class="cls-4" d="M28.4,24.9,6.65,18.11c-1.17-.4-2.56.16-2.56,1v3c0,.43.37.82,1,1L28.4,30.47Z"/><path class="cls-4" d="M28.4,37.06,2.13,28.18c-1-.33-2.13.13-2.13.85v2.49c0,.35.31.68.79.85L28.4,41.7Z"/><text class="cls-5" transform="translate(49.23 54.23) rotate(-90)">PERFOR<tspan class="cls-6" x="20.41" y="0">M</tspan><tspan x="25.27" y="0">ANCE</tspan></text></g></g></svg>