<svg xmlns="http://www.w3.org/2000/svg" viewBox="273.22 166.64 533.56 1586.69">
  <path d="M286.12,206.89a9.9,9.9,0,0,0-9.9,9.9v143a9.9,9.9,0,1,0,19.8,0v-143A9.9,9.9,0,0,0,286.12,206.89Z
M783.51,206.89a9.9,9.9,0,0,0-9.9,9.9v143a9.9,9.9,0,0,0,19.8,0v-143A9.9,9.9,0,0,0,783.51,206.89Z
M701.91,197l7.52,26.88a95.13,95.13,0,0,0,11.42,25.49h0l.08.12a7.41,7.41,0,0,1-6.85,11.37L605.69,252a5.16,5.16,0,0,0-5.58,5.14V278H763.9V197Z
M605.75,278s15.81,26.7,47.5,26.7c22.75,0,34.15,6.2,45.62,16.87h0c7.72,24.64,25.69,20,42.29,16.62h20V271.24L605.75,258Z
M756.84,369.74h.78a25.9,25.9,0,0,0,25.89-25.9V197H709l7.52,26.88A95.13,95.13,0,0,0,728,249.41h0a101.61,101.61,0,0,1,15.76,62.42l-.89,11.94a48.16,48.16,0,0,0,3.91,22.91Z
M365.85,197l-7.52,26.88a95.13,95.13,0,0,1-11.42,25.49h0l-.08.12a7.41,7.41,0,0,0,6.85,11.37L462.07,252a5.16,5.16,0,0,1,5.58,5.14V278H303.86V197Z
M462,278s-15.81,26.7-47.5,26.7c-22.75,0-34.15,6.2-45.62,16.87h0a62.12,62.12,0,0,1-42.29,16.62h-20V271.24L462,258Z
M310.92,369.74h0a26.67,26.67,0,0,1-26.67-26.67V197h74.47l-7.52,26.88a95.13,95.13,0,0,1-11.42,25.49h0A101.61,101.61,0,0,0,324,311.83l.89,11.94A48.16,48.16,0,0,1,321,346.68Z
M658.8,460.68v-3.81a7.4,7.4,0,0,0-7.4-7.4H538.77v11.21Z
M538.77,501.08H651.4a7.4,7.4,0,0,0,7.4-7.4v-3.43h-120Z
M688.19,417.47V557.06a39.67,39.67,0,0,0,.6,6.67H803.18a40.74,40.74,0,0,0,.6-6.67V417.47c0-.91-.08-1.79-.14-2.67H688.33C688.27,415.68,688.19,416.56,688.19,417.47Z
M688.19,450.9v74.59a11.71,11.71,0,0,0,.6,3.56H803.18a12,12,0,0,0,.6-3.56V450.9a11.54,11.54,0,0,0-.14-1.43H688.33A11.54,11.54,0,0,0,688.19,450.9Z
M709.29,592.59a41.36,41.36,0,0,0,4.69,2.14V379.79a41.36,41.36,0,0,0-4.69,2.14Z
M722.29,597a40.26,40.26,0,0,0,4.69.46V377.09a40.26,40.26,0,0,0-4.69.47Z
M782.66,592.59a41.22,41.22,0,0,1-4.68,2.14V379.79a41.22,41.22,0,0,1,4.68,2.14Z
M769.66,597a40.09,40.09,0,0,1-4.68.46V377.09a40.09,40.09,0,0,1,4.68.47Z
M394.53,1395.6v142.87a41.38,41.38,0,0,1-.61,6.82H276.84a41.38,41.38,0,0,1-.61-6.82V1395.6c0-.92.08-1.82.14-2.73h118C394.45,1393.78,394.53,1394.68,394.53,1395.6Z
M394.53,1429.82v76.34a12.24,12.24,0,0,1-.61,3.64H276.84a12.24,12.24,0,0,1-.61-3.64v-76.34a12,12,0,0,1,.14-1.46h118A12,12,0,0,1,394.53,1429.82Z
M372.93,1574.83a40.81,40.81,0,0,1-4.8,2.19v-220a40.81,40.81,0,0,1,4.8,2.19Z
M359.62,1579.31a39.64,39.64,0,0,1-4.79.47V1354.29a39.64,39.64,0,0,1,4.79.47Z
M297.84,1574.83a40.81,40.81,0,0,0,4.8,2.19v-220a40.81,40.81,0,0,0-4.8,2.19Z
M311.15,1579.31a39.84,39.84,0,0,0,4.79.47V1354.29a39.84,39.84,0,0,0-4.79.47Z
M394.67,1435.11l70.68-22.06c3.8-1.28,8.32.52,8.32,3.32v9.71c0,1.4-1.19,2.68-3.09,3.33l-75.91,23.83Z
M394.67,1474.65,480,1445.78c3.16-1.06,6.92.44,6.92,2.77v8.08c0,1.16-1,2.23-2.57,2.76l-89.72,30.34Z
M685.48,1395.6v142.87a41.38,41.38,0,0,0,.61,6.82H803.17a41.38,41.38,0,0,0,.61-6.82V1395.6c0-.92-.08-1.82-.14-2.73h-118C685.56,1393.78,685.48,1394.68,685.48,1395.6Z
M685.48,1429.82v76.34a12.24,12.24,0,0,0,.61,3.64H803.17a12.24,12.24,0,0,0,.61-3.64v-76.34a12,12,0,0,0-.14-1.46h-118A12,12,0,0,0,685.48,1429.82Z
M707.08,1574.83a40.81,40.81,0,0,0,4.8,2.19v-220a40.81,40.81,0,0,0-4.8,2.19Z
M720.39,1579.31a39.64,39.64,0,0,0,4.79.47V1354.29a39.64,39.64,0,0,0-4.79.47Z
M782.16,1574.83a39.94,39.94,0,0,1-4.79,2.19v-220a39.94,39.94,0,0,1,4.79,2.19Z
M768.86,1579.31a39.84,39.84,0,0,1-4.79.47V1354.29a39.84,39.84,0,0,1,4.79.47Z
M685.34,1435.11l-70.69-22.06c-3.79-1.28-8.31.52-8.31,3.32v9.71c0,1.4,1.19,2.68,3.09,3.33l75.91,23.83Z
M685.34,1474.65,600,1445.78c-3.16-1.06-6.92.44-6.92,2.77v8.08c0,1.16,1,2.23,2.57,2.76l89.72,30.34Z
M535.24,449.47H428.61a7.4,7.4,0,0,0-7.4,7.4v3.81h114Z
M421.21,490.25v3.43a7.4,7.4,0,0,0,7.4,7.4H535.24V490.25Z
M276.23,417.47V557.06a40.74,40.74,0,0,0,.6,6.67H391.22a39.67,39.67,0,0,0,.6-6.67V417.47c0-.91-.08-1.79-.14-2.67H276.37C276.31,415.68,276.23,416.56,276.23,417.47Z
M276.23,450.9v74.59a12,12,0,0,0,.6,3.56H391.22a11.71,11.71,0,0,0,.6-3.56V450.9a11.54,11.54,0,0,0-.14-1.43H276.37A11.54,11.54,0,0,0,276.23,450.9Z
M297.34,592.59a40.43,40.43,0,0,0,4.68,2.14V379.79a40.43,40.43,0,0,0-4.68,2.14Z
M310.33,597a40.26,40.26,0,0,0,4.69.46V377.09a40.26,40.26,0,0,0-4.69.47Z
M370.7,592.59a40.43,40.43,0,0,1-4.68,2.14V379.79a40.43,40.43,0,0,1,4.68,2.14Z
M357.7,597a39.88,39.88,0,0,1-4.68.46V377.09a39.87,39.87,0,0,1,4.68.47Z
M394.9,857.23c-10.22-14.51-36.11-16.76-51.3-16.75A11.58,11.58,0,0,0,332,852.05v24.81a11.57,11.57,0,0,0,11.56,11.57H442.4A11.57,11.57,0,0,0,454,876.86v-3.3A11.57,11.57,0,0,0,442.4,862H404.23A11.38,11.38,0,0,1,394.9,857.23Z
M685.65,855.61c10.22-14.51,36.11-16.76,51.3-16.75a11.58,11.58,0,0,1,11.6,11.57v24.81A11.56,11.56,0,0,1,737,886.81H638.15a11.57,11.57,0,0,1-11.57-11.57v-3.3a11.57,11.57,0,0,1,11.57-11.57h38.17A11.38,11.38,0,0,0,685.65,855.61Z
M630.45,846.64c0-36.67-18-50.41-21.69-69.9H472.66c-3.69,19.49-23.1,33.23-23.1,69.9,0,79.11-143.1,8.67-114.26,182.21,21.82,131.35,117.64,518.65,117.64,518.65,5.17,22.81,24.39,38.88,46.48,38.88h81.17c22.09,0,41.31-16.07,46.48-38.88,0,0,95.82-387.3,117.64-518.65C773.55,855.31,630.45,925.75,630.45,846.64Z
M702,988.84V904c-33-15.49-71.56-16.29-71.56-57.33,0-36.67-18-50.41-21.69-69.9H472.66c-3.69,19.49-23.1,33.23-23.1,69.9,0,40.46-37.43,41.81-70.15,56.68v87.34c0,85.18,14.38,170.12,42.87,253.33l117.26,342.39,118.38-340.7C687.22,1161.35,702,1075.22,702,988.84Z
M454,1407.09H629.1a6.13,6.13,0,0,1,6.13,6.13v130a0,0,0,0,1,0,0H447.83a0,0,0,0,1,0,0v-130A6.13,6.13,0,0,1,454,1407.09Z
M423.68,886.14V990.66A1050.06,1050.06,0,0,0,454.78,1244l85,341.85,1-2.82,85-337.34a1049.89,1049.89,0,0,0,32-256.84v-102c-15.8-7.36-27.29-17.76-27.29-40.17,0-36.67-23.11-50.41-26.81-69.9H477.77c-3.69,19.49-28.21,33.23-28.21,69.9C449.56,868.38,438.75,878.82,423.68,886.14Z
M637.85,988.84V871.94c-4.65-6.26-7.4-14.34-7.4-25.3,0-36.67-23.11-50.41-26.81-69.9H477.77c-3.69,19.49-28.21,33.23-28.21,69.9,0,9.8-2.2,17.31-6,23.26V990.66A1254.69,1254.69,0,0,0,469.38,1244L540,1586.38l71.29-340.7A1254.17,1254.17,0,0,0,637.85,988.84Z
M574.29,988.84V871.94c-1.61-6.26-2.56-14.34-2.56-25.3,0-36.67-8-50.41-9.26-69.9H519c-1.27,19.49-9.75,33.23-9.75,69.9a109.17,109.17,0,0,1-2.07,23.26V990.66c0,85.18,3,170.12,8.92,253.33l24.42,342.39,24.64-340.7C571.21,1161.35,574.29,1075.22,574.29,988.84Z
M583,1525l73.85,55.18a5.67,5.67,0,0,0,9.07-4.54V1550a5.7,5.7,0,0,0-2.27-4.55l-80.26-60a5.68,5.68,0,0,0-9.08,4.55v17.69A21.64,21.64,0,0,0,583,1525Z
M500.66,1525l-73.85,55.18a5.68,5.68,0,0,1-9.08-4.54V1550a5.68,5.68,0,0,1,2.28-4.55l80.25-60a5.68,5.68,0,0,1,9.08,4.55v17.69A21.66,21.66,0,0,1,500.66,1525Z
M490.61,773.88H593a6.13,6.13,0,0,1,6.13,6.13V984.86a14.87,14.87,0,0,1-14.87,14.87H499.36a14.87,14.87,0,0,1-14.87-14.87V780A6.13,6.13,0,0,1,490.61,773.88Z
M490.61,773.88H593a6.13,6.13,0,0,1,6.13,6.13V984.86a14.87,14.87,0,0,1-14.87,14.87H499.36a14.87,14.87,0,0,1-14.87-14.87V780A6.13,6.13,0,0,1,490.61,773.88Z
M593,779.37a19.78,19.78,0,0,0-13.68-5.49h-75a19.78,19.78,0,0,0-13.68,5.49Z
M599.15,951.57V845.8a21.33,21.33,0,0,0-19.64-13H504.25a21.3,21.3,0,0,0-19.76,13.36V951.57a48.17,48.17,0,0,0,48.16,48.17H551A48.17,48.17,0,0,0,599.15,951.57Z
M492,977.35a48.34,48.34,0,0,0,12.58,13.31l22.5-92L512.15,895Z
M593.06,975l-19.93-81.48-14.94,3.66,22.56,92.22A48.44,48.44,0,0,0,593.06,975Z
M683.06,1708.09,547,1698.54a98.41,98.41,0,0,0-14,0L397,1708.09V1565.28L522.61,1557a265.71,265.71,0,0,1,34.79,0l125.66,8.31Z
M557.4,1557a265.71,265.71,0,0,0-34.79,0L397,1565.28v38.48l125.66-8.3a262.27,262.27,0,0,1,34.79,0l125.66,8.3v-38.48Z
M398.47,1750.33h0a4.2,4.2,0,0,0,4.2-4.2V1564.91a4.21,4.21,0,0,0-4.2-4.21H382.21a4.21,4.21,0,0,0-4.19,4.59l16.26,181.21A4.2,4.2,0,0,0,398.47,1750.33Z
M681.54,1750.33h0a4.2,4.2,0,0,1-4.2-4.2V1564.91a4.21,4.21,0,0,1,4.2-4.21H697.8a4.21,4.21,0,0,1,4.19,4.59L685.73,1746.5A4.2,4.2,0,0,1,681.54,1750.33Z
M611.7,779H470L503.37,205a37.54,37.54,0,0,1,37.48-35.36h0A37.54,37.54,0,0,1,578.33,205Z
M606.38,779H475.32L506.19,205c1.06-19.85,16.27-35.36,34.66-35.36h0c18.39,0,33.6,15.51,34.66,35.36Z
M510.74,304a30.35,30.35,0,1,0,52-21.28v-7.92H519.36v8A30.23,30.23,0,0,0,510.74,304Z
M484.46,708.14H457.05l11.74-41.78a9.29,9.29,0,0,1,9-6.79h0A9.3,9.3,0,0,1,487,669.5Z
M592.49,708.14h27.4l-11.73-41.78a9.3,9.3,0,0,0-9-6.79h0a9.3,9.3,0,0,0-9.29,9.93Z
M554,621.79a12.34,12.34,0,0,0,3.41-7.81,17,17,0,0,0-3.42-12.4c-1-1.3-.87-2.18.14-3.34a60.09,60.09,0,0,0,3.71-4.8c.66-.92,1.12-.93,1.89-.09a28.12,28.12,0,0,1,6.81,14.46,27.18,27.18,0,0,1-2.44,17.33A21.21,21.21,0,0,1,543,636.63c-10.13-.83-17.7-6.9-20-16.68-2-8.49-.82-16.48,5.86-22.85,3.19-3,7.16-4.54,11.43-5.42,1.13-.23,1.31.44,1.6,1.14q3.81,9.21,7.62,18.41C551,614.68,552.44,618.12,554,621.79Zm-9.73,3.54c.29-.64,2.41.73,1.58-1.33-2.52-6.21-5.14-12.37-7.68-18.56-.34-.83-.68-.92-1.42-.46a9.84,9.84,0,0,0-4.63,5.86C530,618.33,535.83,625.35,544.24,625.33Z
M522.28,515.85c0-11.18,6.66-20,17.07-22.57,13-3.24,26.14,6.24,27.38,19.57.75,8-1.24,15-7.22,20.51-6.37,5.83-14,7.27-22.06,4.57s-12.71-8.61-14.66-16.77a15.08,15.08,0,0,1-.35-2.1C522.34,518,522.33,516.92,522.28,515.85Zm22.4-11.38c-6.88,0-12.22,5-12.25,11.45,0,6.63,5.06,11.46,12.11,11.47,6.84,0,12.15-5,12.14-11.56S551.65,504.48,544.68,504.47Z
M522.31,424.69c0-11.45,6.82-20.33,17.31-22.83,12.84-3.05,25.88,6.43,27.1,19.58.79,8.49-1.41,15.83-8.09,21.35-12.88,10.66-32.59,3.52-35.84-12.88A23.69,23.69,0,0,1,522.31,424.69ZM544.61,436c6.94,0,12.12-5.09,12.07-11.79,0-6.47-5.19-11.15-12.24-11.13a11.73,11.73,0,0,0-12,11.71C532.48,431.35,537.61,436.07,544.61,436Z
M529,575.47c-3.53-3.1-5.67-6.47-6.4-10.57-2-11.54,5-21,16.63-21.08,8.38-.05,16.76,0,25.14,0,1.5,0,1.94.43,1.88,1.9-.11,2.67-.12,5.35,0,8,.07,1.59-.33,2.14-2,2.12-7.43-.1-14.86.11-22.28-.09-5.12-.14-9.35,4.08-9.49,9.9a9.33,9.33,0,0,0,9.52,9.83c7.49,0,15,0,22.47,0,1.34,0,1.88.27,1.82,1.75-.11,2.84-.07,5.7,0,8.55,0,1.08-.19,1.58-1.45,1.58q-20.23-.08-40.48,0c-1,0-1.34-.31-1.32-1.31q.07-4.63,0-9.27c0-1,.37-1.33,1.35-1.28C525.72,575.52,527.08,575.47,529,575.47Z
M523,494.52c0-4.45,0-8.6,0-12.75,0-1.12.86-1.18,1.52-1.43l24.9-9.06,2.34-.88c-.36-.72-1-.72-1.52-.91-8.52-3.11-17-6.24-25.57-9.28a2.13,2.13,0,0,1-1.69-2.42c.1-3.45.06-6.9,0-10.35,0-1.11.15-1.47,1.37-1q20.28,8.41,40.61,16.7a1.8,1.8,0,0,1,1.27,2c-.06,3.39,0,6.78,0,10.16,0,.81,0,1.42-1,1.81C551.26,482.88,537.29,488.64,523,494.52Z
M538.18,676.84c-8.8,0-17.6,0-26.4,0-1.38,0-1.85-.33-1.8-1.76.11-2.85.11-5.71,0-8.56-.05-1.45.44-1.79,1.82-1.79q20.61.07,41.2,0c2.62,0,2.24.27,2.25-2.3,0-7.67,0-15.34,0-23,0-1.37.4-1.72,1.69-1.68,2.67.09,5.35.06,8,0,1,0,1.32.34,1.32,1.34,0,12.13,0,24.26,0,36.39,0,1.44-.78,1.31-1.69,1.31Z
M349.46,1102.72c17.42,83.85,43.94,197.74,65.78,289.27H305.64V1081.3a226.56,226.56,0,0,1,23.54-101l2.73-5.51a199.42,199.42,0,0,0,1.14,38c.58,5.1,1.31,10.45,2.25,16.06C338.55,1048.47,343.48,1073.8,349.46,1102.72Z
M349.46,1102.72c17.42,83.85,43.94,197.74,65.78,289.27H349.46Z
M334.75,1012.79a246.68,246.68,0,0,0-9.65,68.51V1392H307.35V1081.3a226.68,226.68,0,0,1,23.53-101l2.74-5.51A200.16,200.16,0,0,0,334.75,1012.79Z
M779.12,1081.3V1392H666.47c23.18-97.09,51.62-219.34,68.85-304.23,4.61-22.71,8.42-42.76,11.11-58.91,1.4-8.4,2.37-16.22,3-23.5a182.42,182.42,0,0,0,0-34.41h1.48l4.64,9.34A226.56,226.56,0,0,1,779.12,1081.3Z
M735.32,1087.76V1392H666.47C689.65,1294.9,718.09,1172.65,735.32,1087.76Z
M779.12,1081.3V1392H761.37V1081.3a245.77,245.77,0,0,0-11.93-75.95,182.42,182.42,0,0,0,0-34.41h1.48l4.64,9.34A226.56,226.56,0,0,1,779.12,1081.3Z" stroke="#666" stroke-width="3" fill="none"/>
</svg>